# xmcd
#
# Track frame offsets:
#	150
#	19019
#	36629
#	51534
#	69497
#	89927
#	102173
#	115156
#	127558
#	144535
#	162197
#	175798
#	194528
#	212293
#
# Disc length: 3075 seconds
#
# Revision: 1
# Processed by: cddbd v1.5.2PL0 Copyright (c) Steve Scherf et al.
# Submitted via: audiograbber 1.83.01
#
DISCID=c60c010e
DTITLE=Compilation - SD151
DYEAR=2007
DGENRE=Country
TTITLE0=Martina McBride - Anyway
TTITLE1=Keith Urban - Stupid Boy
TTITLE2=Sugarland - Settlin'
TTITLE3=Jack Ingram - Lips Of An Angel
TTITLE4=Carrie Underwood - Wasted
TTITLE5=Miranda Lambert - Crazy Ex-Gilfriend
TTITLE6=Blaine Larsen - Spoken Like A Man
TTITLE7=Donovan Chapman - House Like That
TTITLE8=Carolina Rain - Isn't She
TTITLE9=Rocky Lynne - More
TTITLE10=Sammy Kershaw - Baby's Got Her Blue Jeans On
TTITLE11=Rushlow Harris - Bagpipes Cryin'
TTITLE12=Heartland - Built To Last
TTITLE13=Alison Krauss and John Waite - Missing You
EXTD=
EXTT0=
EXTT1=
EXTT2=
EXTT3=
EXTT4=
EXTT5=
EXTT6=
EXTT7=
EXTT8=
EXTT9=
EXTT10=
EXTT11=
EXTT12=
EXTT13=
PLAYORDER=
